<svg width="123" height="94" xmlns="http://www.w3.org/2000/svg" xmlns:xlink="http://www.w3.org/1999/xlink" xml:space="preserve" overflow="hidden"><defs><clipPath id="clip0"><rect x="578" y="313" width="123" height="94"/></clipPath></defs><g clip-path="url(#clip0)" transform="translate(-578 -313)"><path d="M668.323 339.382 693.708 339.382C695.641 339.382 697.404 340.169 698.66 341.434 699.935 342.709 700.712 344.463 700.712 346.386L700.712 400.006C700.712 401.939 699.925 403.702 698.66 404.958 697.384 406.233 695.631 407.01 693.708 407.01L668.323 407.01C666.39 407.01 664.626 406.223 663.371 404.958 662.096 403.682 661.319 401.929 661.319 400.006L661.319 346.376C661.319 344.443 662.106 342.68 663.371 341.424 664.646 340.149 666.39 339.382 668.323 339.382L668.323 339.382 668.323 339.382ZM691.217 369.938 679.431 372.289 681.812 368.762C677.997 364.857 673.812 363.502 668.881 365.076 674.021 358.451 681.015 358.301 686.565 361.719L688.996 358.122 691.217 369.938 691.217 369.938 691.217 369.938 691.217 369.938ZM635.375 352.264 647.161 349.913 644.78 353.439C648.596 357.345 652.781 358.7 657.712 357.126 652.571 363.751 645.577 363.9 640.028 360.483L637.597 364.08 635.375 352.264 635.375 352.264 635.375 352.264 635.375 352.264ZM581.327 313 687.053 313C688.727 313 690.092 314.365 690.092 316.039L690.092 334.41 683.636 334.41 683.636 322.056C683.636 320.582 682.43 319.366 680.946 319.366L587.424 319.366 587.424 319.366C585.949 319.366 584.734 320.572 584.734 322.056L584.734 373.744C584.734 375.218 585.939 376.434 587.424 376.434L654.703 376.434 654.703 389.117 581.327 389.117C579.653 389.117 578.288 387.752 578.288 386.078L578.288 316.039C578.288 314.365 579.653 313 581.327 313L581.327 313 581.327 313 581.327 313ZM647.968 393.311C648.038 398.083 650.001 402.347 655.331 405.715L613.048 405.715C617.303 402.626 620.421 398.87 620.411 393.311L647.968 393.311 647.968 393.311ZM634.19 378.875C636.342 378.875 638.095 380.618 638.095 382.78 638.095 384.932 636.342 386.686 634.19 386.686 632.038 386.686 630.284 384.942 630.284 382.78 630.284 380.628 632.028 378.875 634.19 378.875L634.19 378.875ZM681.005 398.402C682.59 398.402 683.885 399.677 683.885 401.281 683.885 402.865 682.609 404.161 681.005 404.161 679.421 404.161 678.126 402.885 678.126 401.281 678.126 399.697 679.401 398.402 681.005 398.402L681.005 398.402ZM664.268 396.21 697.753 396.21 697.753 348.936 664.268 348.936 664.268 396.21 664.268 396.21Z" fill="#00B0F0" fill-rule="evenodd"/></g></svg>