<svg width="123" height="123" xmlns="http://www.w3.org/2000/svg" xmlns:xlink="http://www.w3.org/1999/xlink" xml:space="preserve" overflow="hidden"><defs><clipPath id="clip0"><rect x="578" y="298" width="123" height="123"/></clipPath></defs><g clip-path="url(#clip0)" transform="translate(-578 -298)"><path d="M594.646 403.853C594.656 399.819 596.948 395.875 600.682 391.461L579.091 377.808C577.73 377.217 577.76 376.386 578.551 375.406L583.125 371.502C583.956 370.991 584.837 370.771 585.788 371.031L612.434 375.536 634.635 351.492 582.805 316.428C581.493 315.657 581.383 314.786 582.735 313.775L590.212 307.81 657.778 326.798 677.737 305.457C684.434 299.662 690.94 297.069 695.935 298.3 698.688 298.981 699.659 299.802 700.51 302.384 702.161 307.449 699.599 314.256 693.543 321.263L672.202 341.222 691.19 408.788 685.225 416.265C684.214 417.607 683.343 417.497 682.572 416.195L647.498 364.375 623.454 386.566 627.959 413.212C628.219 414.153 628.009 415.034 627.488 415.875L623.584 420.449C622.614 421.24 621.773 421.27 621.182 419.909L607.529 398.318C603.094 402.062 599.151 404.354 595.097 404.354 594.726 404.344 594.646 404.214 594.646 403.853L594.646 403.853Z" fill="#FFC000" fill-rule="evenodd"/></g></svg>